<svg xmlns="http://www.w3.org/2000/svg" viewBox="531.25 281.25 937.5 937.5">   <rect width="937.548" height="937.651" style="fill: none; fill-opacity: 0;" y="281.229" x="531.222"/>   <g transform="matrix(0.75, 0, 0, 0.75, 250, 281.25)">     <svg viewBox="0 0 512 320" data-background-color="#ffbe79" preserveAspectRatio="xMidYMid meet" height="1250" width="2000" xmlns="http://www.w3.org/2000/svg">       <g id="tight-bounds" transform="matrix(1,0,0,1,0,0)">         <svg viewBox="0 0 512 320" height="320" width="512">           <g>             <svg/>           </g>           <g>             <svg viewBox="0 0 512 320" height="320" width="512">               <g>                 <path d="M96 160c0-88.366 71.634-160 160-160 88.366 0 160 71.634 160 160 0 88.366-71.634 160-160 160-88.366 0-160-71.634-160-160z" fill="#374151" data-fill-palette-color="tertiary"/>               </g>               <g transform="matrix(1,0,0,1,116,20)">                 <svg viewBox="0 0 280 280" height="280" width="280">                   <g>                     <svg viewBox="0 0 280 280" height="280" width="280">                       <g>                         <svg viewBox="0 0 280 280" height="280" width="280">                           <g>                             <svg viewBox="0 0 280 280" height="280" width="280">                               <g>                                 <svg viewBox="0 0 280 280" height="280" width="280">                                   <g transform="matrix(1,0,0,1,74.40887513076606,86.76230734843571)">                                     <svg viewBox="0 0 131.18224973846787 106.47538530312859" height="106.47538530312859" width="131.18224973846787">                                       <g>                                         <svg version="1.1" xmlns="http://www.w3.org/2000/svg" x="0" y="0" viewBox="0 0 100 81.16600036621094" enable-background="new 0 0 100 81.166" width="131.18224973846787" height="106.47538530312859" class="icon-o-0" data-fill-palette-color="quaternary" id="o-0">                                           <path d="M87.043 0H50 12.957L0 23.557l50 57.609 50-57.609L87.043 0zM83.635 6.345l7.59 13.801h-13.64L83.635 6.345zM77.168 6.043l-5.537 12.636L57.792 6.043H77.168zM64.273 20.146H50 35.727L50 7.113 64.273 20.146zM42.208 6.043L28.37 18.679 22.832 6.043H42.208zM16.365 6.345l6.05 13.801H8.775L16.365 6.345zM10.288 26.189h14.776l15.078 34.399L10.288 26.189zM31.663 26.189H50h18.338L50 68.022 31.663 26.189zM59.857 60.589l15.078-34.399h14.777L59.857 60.589z" fill="#ffbe79" data-fill-palette-color="quaternary"/>                                         </svg>                                       </g>                                     </svg>                                   </g>                                   <path d="M27.085 99.566l1.331 0.805-1.897 5.173-21.036-13.255 1.225-5.572 18.555 11.69c0.366-0.244 0.669-0.515 0.909-0.812 0.244-0.289 0.432-0.613 0.563-0.971v0c0.71-1.936-0.287-4.156-2.99-6.66-2.712-2.5-6.139-4.509-10.28-6.028v0c-2.25-0.825-4.105-1.003-5.564-0.534-1.459 0.469-2.505 1.565-3.136 3.289v0c-1.027 2.801-1.064 5.362-0.112 7.682 0.955 2.314 2.75 3.954 5.384 4.92v0c0.455 0.167 0.86 0.283 1.215 0.347 0.354 0.065 0.716 0.081 1.084 0.049v0c0.113-0.01 0.187-0.015 0.224-0.016 0.043 0.001 0.078 0.007 0.103 0.016v0c-0.475 1.295-1.104 2.159-1.888 2.591-0.784 0.432-1.737 0.443-2.859 0.031v0c-1.321-0.484-2.453-1.383-3.396-2.696-0.946-1.307-1.611-2.874-1.996-4.702v0c-0.297-1.491-0.38-3.048-0.25-4.673 0.137-1.622 0.49-3.209 1.059-4.761v0c1.124-3.064 2.908-5.093 5.352-6.088 2.436-0.99 5.269-0.893 8.5 0.292v0c1.75 0.642 3.448 1.494 5.095 2.555 1.644 1.068 3.106 2.259 4.385 3.571v0c1.749 1.754 2.971 3.518 3.666 5.294 0.695 1.775 0.783 3.367 0.266 4.777v0c-0.263 0.718-0.692 1.382-1.287 1.993-0.588 0.613-1.33 1.178-2.225 1.693zM35.869 53.729v0c1.702 1.259 2.668 3.052 2.9 5.38 0.226 2.324-0.322 4.488-1.643 6.492v0c0.334 0.272 0.584 0.479 0.752 0.62 0.168 0.141 0.312 0.256 0.432 0.345v0c0.944 0.698 1.729 1.032 2.354 1.002 0.625-0.03 1.248-0.465 1.87-1.305v0c0.711-0.961 1.147-2.01 1.308-3.146 0.152-1.136 0.023-2.666-0.387-4.592v0l0.774-1.046c1.046 2.616 1.519 4.967 1.421 7.051-0.104 2.08-0.769 3.95-1.995 5.608v0c-1.169 1.581-2.461 2.472-3.876 2.674-1.419 0.207-2.938-0.288-4.557-1.486v0c-1.169-0.865-2.272-1.969-3.307-3.312-1.04-1.338-1.846-2.694-2.418-4.069v0c-0.669-1.667-0.924-3.257-0.765-4.769 0.158-1.522 0.72-2.937 1.686-4.243v0c0.836-1.131 1.7-1.8 2.593-2.007 0.901-0.208 1.854 0.059 2.858 0.803zM32.231 55.891v0c-0.516 0.697-0.416 1.854 0.3 3.47 0.717 1.626 1.818 3.26 3.304 4.903v0c0.799-1.252 1.019-2.698 0.661-4.339-0.354-1.646-1.165-2.938-2.432-3.876v0c-0.434-0.321-0.799-0.493-1.096-0.517-0.292-0.029-0.538 0.09-0.737 0.359zM54.672 49.837v0c-0.215-0.247-0.442-0.548-0.679-0.903-0.238-0.345-0.477-0.734-0.719-1.167v0l-9.515-17.127 3.77-4.294 10.26 18.448c0.107 0.206 0.213 0.39 0.318 0.552 0.11 0.158 0.233 0.313 0.367 0.468v0c0.337 0.386 0.667 0.583 0.991 0.59 0.324-0.002 0.698-0.187 1.119-0.555v0c0.535-0.467 0.84-1.145 0.916-2.035 0.066-0.891-0.111-1.81-0.53-2.759v0l1.211-1.056c0.904 2.283 1.234 4.328 0.99 6.135-0.254 1.807-1.053 3.296-2.396 4.468v0c-0.962 0.839-1.979 1.196-3.049 1.069-1.08-0.127-2.098-0.739-3.054-1.834zM79.545 32.69v0c0.591-0.313 0.982-0.844 1.173-1.594 0.197-0.753 0.184-1.689-0.037-2.807v0l-3.443-12.071 4.871-2.577 3.647 12.786c0.057 0.225 0.121 0.426 0.192 0.605 0.065 0.182 0.146 0.363 0.242 0.544v0c0.239 0.453 0.516 0.72 0.829 0.801 0.316 0.072 0.722-0.023 1.217-0.285v0c0.585-0.31 0.976-0.849 1.172-1.616 0.205-0.765 0.202-1.698-0.009-2.799v0l1.421-0.752c0.377 2.45 0.267 4.505-0.33 6.165-0.594 1.651-1.646 2.875-3.155 3.673v0c-0.972 0.514-1.895 0.651-2.771 0.412-0.879-0.246-1.637-0.86-2.274-1.845v0c-0.08 1.425-0.39 2.62-0.93 3.586-0.549 0.962-1.34 1.717-2.371 2.263v0c-1.129 0.597-2.2 0.712-3.213 0.344-1.023-0.371-1.874-1.198-2.554-2.484v0c-0.153-0.29-0.305-0.634-0.454-1.034-0.153-0.39-0.297-0.824-0.433-1.301v0l-3.443-12.07 4.861-2.572 3.656 12.78c0.048 0.207 0.104 0.386 0.168 0.537 0.065 0.151 0.138 0.305 0.222 0.462v0c0.239 0.453 0.506 0.752 0.799 0.898 0.293 0.146 0.609 0.13 0.947-0.049zM116.31 0.737v0c0.62-0.136 1.195 0.081 1.725 0.65 0.531 0.576 0.901 1.337 1.108 2.284v0c0.201 0.92 0.113 1.953-0.265 3.099-0.38 1.139-1.428 3.199-3.145 6.181v0l0.901 2.539c0.404 1.114 0.836 1.889 1.296 2.327 0.458 0.431 1.037 0.57 1.737 0.417v0c0.694-0.152 1.288-0.6 1.782-1.344 0.486-0.749 0.773-1.64 0.861-2.673v0l1.571-0.344c-0.283 2.41-0.956 4.35-2.018 5.82-1.062 1.47-2.427 2.387-4.095 2.752v0c-1.167 0.255-2.249-0.074-3.246-0.989-0.997-0.914-1.906-2.417-2.727-4.508v0l-3.79 7.402-2.681 0.587 5.681-10.165-1.516-4.051c-0.424-1.109-0.787-1.872-1.088-2.288-0.301-0.416-0.638-0.584-1.011-0.502v0c-0.874 0.191-1.597 1.23-2.17 3.117-0.579 1.888-0.859 4.252-0.838 7.092v0l-1.571 0.344c-0.045-4.009 0.465-7.252 1.53-9.729 1.066-2.477 2.606-3.935 4.62-4.376v0c1.147-0.251 2.144-0.071 2.991 0.541 0.852 0.603 1.523 1.61 2.013 3.019v0l0.962 2.767c0.842-1.519 1.425-2.751 1.749-3.696 0.331-0.946 0.439-1.746 0.325-2.398v0c-0.168 0.065-0.297 0.114-0.387 0.147-0.084 0.032-0.162 0.056-0.236 0.073v0c-0.574 0.126-1.047 0.037-1.421-0.266-0.379-0.294-0.642-0.779-0.79-1.452v0c-0.124-0.567 0.008-1.064 0.397-1.492 0.39-0.421 0.972-0.716 1.746-0.885zM151.062 4.492v0c-0.083 2.115-1.022 3.923-2.818 5.424-1.794 1.494-3.892 2.259-6.291 2.294v0c-0.037 0.429-0.067 0.752-0.089 0.97-0.022 0.218-0.036 0.402-0.043 0.552v0c-0.046 1.173 0.119 2.01 0.496 2.51 0.377 0.5 1.087 0.771 2.13 0.811v0c1.194 0.047 2.306-0.182 3.338-0.688 1.025-0.513 2.218-1.481 3.579-2.903v0l1.3 0.051c-1.575 2.336-3.252 4.05-5.031 5.142-1.778 1.085-3.698 1.586-5.758 1.505v0c-1.965-0.077-3.429-0.644-4.391-1.7-0.97-1.056-1.415-2.591-1.336-4.604v0c0.057-1.453 0.35-2.986 0.879-4.598 0.521-1.613 1.189-3.042 2.003-4.287v0c1.002-1.491 2.173-2.596 3.513-3.316 1.347-0.726 2.833-1.057 4.457-0.992v0c1.405 0.055 2.444 0.394 3.117 1.014 0.679 0.628 0.994 1.566 0.945 2.815zM147.227 2.701v0c-0.866-0.034-1.767 0.699-2.7 2.2-0.941 1.507-1.672 3.337-2.195 5.489v0c1.484-0.044 2.804-0.675 3.959-1.894 1.162-1.218 1.774-2.615 1.836-4.191v0c0.021-0.539-0.042-0.938-0.188-1.197-0.14-0.258-0.377-0.394-0.712-0.407zM207.818 23.235l6.888-8.106c-1.185-0.003-2.658 0.397-4.418 1.2-1.766 0.8-3.747 1.97-5.943 3.508v0c0.727 0.594 1.378 1.178 1.953 1.752 0.572 0.565 1.079 1.114 1.52 1.646zM218.627 14.161v0c0.469 0.253 0.916 0.545 1.343 0.876 0.433 0.334 0.784 0.675 1.054 1.022v0l-18.647 21.918-4.84-2.612 9.177-10.817c-0.587-0.782-1.176-1.457-1.77-2.026-0.596-0.562-1.29-1.103-2.08-1.622v0c-2.781 2.091-5.355 4.353-7.722 6.783-2.367 2.431-4.018 4.512-4.952 6.243v0c-0.217 0.403-0.368 0.775-0.451 1.117-0.087 0.349-0.119 0.688-0.096 1.019v0c-1.706-0.921-2.727-1.848-3.062-2.781-0.331-0.939-0.171-2.012 0.481-3.22v0c0.811-1.502 2.347-3.264 4.61-5.286 2.266-2.028 4.84-3.944 7.722-5.748v0c-1.181-0.544-2.167-0.844-2.959-0.899-0.802-0.053-1.441 0.126-1.919 0.536v0c0.09 0.049 0.12 0.216 0.09 0.502-0.024 0.289-0.096 0.545-0.217 0.768v0c-0.208 0.385-0.558 0.603-1.051 0.654-0.487 0.055-1.002-0.063-1.542-0.355v0c-0.625-0.337-1.036-0.784-1.232-1.34-0.19-0.553-0.122-1.133 0.205-1.739v0c0.629-1.166 1.813-1.792 3.55-1.878 1.741-0.092 3.588 0.388 5.541 1.442v0c0.228 0.123 0.483 0.269 0.766 0.437 0.288 0.171 0.598 0.373 0.929 0.606v0c3.66-2.052 6.983-3.401 9.97-4.047 2.98-0.649 5.348-0.501 7.102 0.447zM223.546 49.888v0c0.469 0.477 1.09 0.7 1.862 0.667 0.778-0.027 1.671-0.307 2.68-0.839v0l10.579-6.755 3.864 3.929-11.206 7.155c-0.199 0.119-0.374 0.238-0.525 0.358-0.155 0.115-0.306 0.244-0.452 0.387v0c-0.365 0.359-0.542 0.7-0.53 1.024 0.021 0.324 0.228 0.685 0.621 1.084v0c0.464 0.472 1.093 0.692 1.885 0.66 0.792-0.022 1.685-0.292 2.679-0.81v0l1.127 1.147c-2.239 1.063-4.24 1.546-6.001 1.448-1.752-0.097-3.226-0.754-4.423-1.97v0c-0.771-0.784-1.167-1.63-1.188-2.538-0.016-0.913 0.356-1.815 1.116-2.706v0c-1.388 0.331-2.622 0.376-3.702 0.135-1.079-0.25-2.028-0.792-2.847-1.624v0c-0.895-0.91-1.312-1.904-1.249-2.98 0.062-1.086 0.612-2.139 1.648-3.158v0c0.234-0.23 0.521-0.474 0.861-0.732 0.33-0.258 0.704-0.52 1.122-0.787v0l10.58-6.755 3.856 3.922-11.199 7.162c-0.184 0.105-0.34 0.21-0.466 0.315-0.126 0.105-0.253 0.22-0.379 0.344v0c-0.365 0.359-0.576 0.7-0.632 1.023-0.056 0.323 0.05 0.621 0.319 0.894zM253.626 63.574l1.474-0.531 0.651 1.079 5.109-1.741 3.577 4.444-5.846 2.007 1.185 1.964-1.469 0.539-1.185-1.964-11.087 3.827c-0.221 0.07-0.421 0.142-0.598 0.218-0.174 0.081-0.349 0.175-0.525 0.28v0c-0.439 0.264-0.69 0.555-0.753 0.873-0.054 0.32 0.063 0.719 0.352 1.199v0c0.367 0.608 0.982 1.026 1.846 1.255 0.866 0.219 1.802 0.205 2.808-0.043v0l0.83 1.377c-2.405 0.494-4.477 0.463-6.214-0.092-1.735-0.564-3.063-1.609-3.983-3.135v0c-0.659-1.093-0.834-2.156-0.524-3.188 0.313-1.042 1.092-1.938 2.337-2.689v0c0.281-0.169 0.616-0.34 1.007-0.512 0.381-0.174 0.806-0.343 1.274-0.505v0l10.385-3.584zM254.33 89.358v0c1.385-0.443 2.927-0.688 4.625-0.736 1.698-0.048 3.275 0.122 4.732 0.51v0c1.724 0.438 3.156 1.174 4.297 2.207 1.145 1.025 1.965 2.315 2.461 3.869v0c0.497 1.554 0.384 2.873-0.338 3.957-0.72 1.09-2.052 1.946-3.996 2.567v0c-0.011 0.054-0.014 0.112-0.009 0.175 0.008 0.069 0.027 0.153 0.059 0.25v0c0.239 0.748 0.734 1.579 1.484 2.493 0.742 0.91 1.573 1.716 2.493 2.419v0l-0.873 0.633c-0.945-0.444-1.864-1.146-2.759-2.107-0.901-0.959-1.676-2.084-2.325-3.375v0c-3.369 0.761-6.319 0.66-8.848-0.302-2.527-0.956-4.16-2.588-4.898-4.897v0c-0.605-1.893-0.581-3.491 0.07-4.796 0.658-1.307 1.933-2.262 3.825-2.867zM268.324 96.209v0c-0.374-1.171-1.906-1.893-4.595-2.167-2.685-0.282-5.084-0.085-7.197 0.59v0c-1.138 0.364-1.872 0.738-2.201 1.123-0.335 0.387-0.386 0.944-0.153 1.672v0c0.289 0.904 1.292 1.53 3.008 1.878 1.717 0.348 3.69 0.323 5.921-0.075v0c-0.036-0.361 0.047-0.66 0.251-0.897 0.204-0.237 0.524-0.425 0.96-0.565v0c0.462-0.148 0.896-0.179 1.303-0.094 0.398 0.081 0.74 0.276 1.026 0.586v0c0.759-0.293 1.265-0.594 1.517-0.904 0.252-0.31 0.306-0.693 0.16-1.147zM9.74 184.331l-1.535 0.246-1.897-5.173 24.619-3.486 2.667 5.044-21.714 3.075c-0.121 0.423-0.177 0.825-0.169 1.207 0 0.378 0.066 0.746 0.198 1.106v0c0.71 1.936 2.905 2.985 6.587 3.148 3.685 0.154 7.598-0.528 11.74-2.047v0c2.25-0.825 3.78-1.888 4.59-3.189 0.81-1.301 0.899-2.813 0.267-4.537v0c-1.027-2.801-2.654-4.779-4.881-5.934-2.224-1.148-4.654-1.239-7.289-0.272v0c-0.455 0.167-0.839 0.34-1.151 0.52-0.312 0.18-0.598 0.401-0.858 0.664v0c-0.08 0.08-0.133 0.132-0.16 0.157-0.034 0.027-0.063 0.045-0.09 0.054v0c-0.475-1.295-0.553-2.361-0.234-3.197 0.319-0.837 1.039-1.461 2.161-1.872v0c1.321-0.484 2.765-0.53 4.334-0.139 1.567 0.385 3.087 1.151 4.562 2.298v0c1.19 0.945 2.261 2.08 3.212 3.404 0.944 1.326 1.701 2.765 2.27 4.316v0c1.124 3.064 1.074 5.766-0.148 8.105-1.218 2.33-3.443 4.088-6.673 5.272v0c-1.75 0.642-3.597 1.09-5.54 1.344-1.945 0.248-3.83 0.284-5.654 0.11v0c-2.469-0.207-4.542-0.764-6.219-1.669-1.677-0.905-2.774-2.062-3.291-3.473v0c-0.263-0.718-0.365-1.502-0.306-2.353 0.053-0.848 0.253-1.758 0.602-2.729zM43.956 217.827v0c-1.702 1.259-3.699 1.658-5.993 1.197-2.288-0.464-4.197-1.622-5.727-3.471v0c-0.358 0.239-0.629 0.418-0.813 0.537-0.184 0.119-0.336 0.223-0.456 0.313v0c-0.944 0.698-1.493 1.351-1.648 1.957-0.154 0.607 0.079 1.33 0.7 2.17v0c0.711 0.961 1.586 1.685 2.626 2.172 1.041 0.478 2.543 0.803 4.504 0.974v0l0.774 1.046c-2.808 0.234-5.194-0.001-7.159-0.705-1.959-0.708-3.552-1.891-4.777-3.549v0c-1.169-1.581-1.643-3.077-1.423-4.489 0.217-1.417 1.135-2.725 2.755-3.923v0c1.169-0.865 2.548-1.596 4.136-2.193 1.584-0.603 3.117-0.976 4.597-1.12v0c1.79-0.152 3.385 0.07 4.785 0.665 1.409 0.597 2.597 1.548 3.564 2.854v0c0.836 1.131 1.223 2.153 1.159 3.066-0.065 0.923-0.6 1.756-1.604 2.498zM42.953 213.715v0c-0.516-0.697-1.651-0.94-3.406-0.729-1.764 0.209-3.649 0.784-5.654 1.724v0c0.963 1.13 2.282 1.764 3.955 1.902 1.677 0.144 3.15-0.254 4.418-1.191v0c0.434-0.321 0.705-0.619 0.815-0.896 0.114-0.271 0.071-0.541-0.128-0.81zM46.258 237.347v0c0.215-0.247 0.483-0.512 0.802-0.795 0.31-0.282 0.663-0.573 1.059-0.871v0l15.674-11.755 4.767 3.152-16.882 12.672c-0.189 0.134-0.357 0.264-0.504 0.39-0.141 0.131-0.279 0.273-0.413 0.428v0c-0.337 0.386-0.487 0.74-0.45 1.061 0.046 0.321 0.28 0.666 0.702 1.034v0c0.535 0.467 1.249 0.677 2.141 0.63 0.891-0.056 1.778-0.356 2.66-0.9v0l1.212 1.057c-2.139 1.206-4.12 1.811-5.945 1.814-1.825-0.006-3.409-0.595-4.751-1.766v0c-0.962-0.839-1.454-1.798-1.474-2.876-0.021-1.087 0.446-2.179 1.402-3.275zM72.736 257.719v0c0.591 0.313 1.251 0.337 1.977 0.072 0.733-0.261 1.5-0.798 2.3-1.61v0l8.042-9.637 4.87 2.576-8.517 10.209c-0.154 0.174-0.284 0.34-0.392 0.499-0.114 0.156-0.218 0.325-0.314 0.506v0c-0.239 0.453-0.305 0.831-0.196 1.137 0.118 0.302 0.425 0.584 0.92 0.845v0c0.585 0.31 1.251 0.33 1.996 0.06 0.748-0.261 1.518-0.788 2.309-1.583v0l1.421 0.752c-1.813 1.69-3.574 2.755-5.282 3.196-1.699 0.437-3.303 0.257-4.812-0.541v0c-0.972-0.514-1.605-1.201-1.9-2.06-0.292-0.865-0.21-1.837 0.246-2.917v0c-1.223 0.735-2.386 1.152-3.488 1.248-1.105 0.088-2.173-0.142-3.204-0.687v0c-1.129-0.597-1.826-1.418-2.093-2.462-0.269-1.054-0.063-2.223 0.617-3.509v0c0.153-0.29 0.353-0.609 0.599-0.958 0.237-0.346 0.514-0.709 0.832-1.089v0l8.041-9.638 4.862 2.572-8.509 10.213c-0.144 0.156-0.26 0.302-0.349 0.441-0.089 0.138-0.175 0.286-0.258 0.443v0c-0.239 0.453-0.337 0.841-0.292 1.166 0.044 0.325 0.236 0.577 0.574 0.756zM120.811 256.229v0c0.62 0.136 1.052 0.573 1.297 1.311 0.242 0.745 0.26 1.591 0.052 2.538v0c-0.201 0.92-0.713 1.822-1.535 2.704-0.821 0.876-2.634 2.31-5.439 4.304v0l-0.242 2.683c-0.098 1.181-0.029 2.066 0.206 2.655 0.236 0.583 0.704 0.951 1.404 1.104v0c0.694 0.152 1.42-0.007 2.18-0.476 0.755-0.478 1.388-1.168 1.9-2.07v0l1.571 0.344c-1.264 2.072-2.686 3.553-4.265 4.445-1.579 0.892-3.202 1.155-4.87 0.79v0c-1.167-0.255-2.013-1.007-2.536-2.253-0.524-1.247-0.722-2.992-0.595-5.236v0l-6.535 5.144-2.681-0.587 9.406-6.864 0.315-4.313c0.078-1.185 0.067-2.03-0.033-2.534-0.099-0.504-0.336-0.797-0.709-0.878v0c-0.874-0.191-1.965 0.451-3.273 1.925-1.315 1.474-2.556 3.505-3.724 6.094v0l-1.571-0.343c1.633-3.662 3.451-6.395 5.454-8.201 2.003-1.805 4.011-2.488 6.025-2.046v0c1.147 0.251 1.978 0.831 2.492 1.74 0.522 0.904 0.711 2.099 0.568 3.584v0l-0.282 2.916c1.399-1.029 2.444-1.905 3.133-2.628 0.696-0.721 1.128-1.403 1.297-2.043v0c-0.179-0.011-0.317-0.02-0.414-0.028-0.09-0.006-0.171-0.016-0.244-0.032v0c-0.574-0.126-0.967-0.404-1.18-0.835-0.221-0.426-0.258-0.976-0.111-1.65v0c0.124-0.567 0.452-0.963 0.983-1.189 0.53-0.219 1.182-0.245 1.956-0.075zM150.665 262.994v0c0.083 2.115-0.71 3.991-2.381 5.629-1.671 1.631-3.702 2.558-6.091 2.782v0c-0.004 0.431-0.008 0.755-0.013 0.974-0.005 0.219-0.005 0.403 0.001 0.553v0c0.046 1.173 0.277 1.995 0.692 2.464 0.415 0.469 1.144 0.683 2.188 0.641v0c1.194-0.047 2.285-0.363 3.273-0.949 0.981-0.592 2.094-1.651 3.339-3.176v0l1.3-0.051c-1.386 2.453-2.923 4.294-4.61 5.522-1.687 1.221-3.561 1.873-5.622 1.954v0c-1.965 0.077-3.469-0.372-4.512-1.35-1.05-0.977-1.614-2.471-1.693-4.484v0c-0.057-1.453 0.114-3.004 0.513-4.653 0.393-1.649 0.946-3.126 1.66-4.431v0c0.881-1.565 1.962-2.759 3.241-3.582 1.286-0.83 2.741-1.276 4.365-1.341v0c1.405-0.055 2.468 0.2 3.187 0.766 0.726 0.573 1.114 1.483 1.163 2.732zM146.702 261.51v0c-0.866 0.034-1.706 0.836-2.519 2.406-0.819 1.577-1.405 3.458-1.756 5.645v0c1.476-0.161 2.742-0.894 3.798-2.2 1.062-1.306 1.562-2.747 1.501-4.323v0c-0.021-0.539-0.115-0.932-0.283-1.178-0.16-0.247-0.407-0.363-0.741-0.35zM203.265 245.864l-2.995-10.208c-0.653 0.989-1.127 2.439-1.422 4.352-0.301 1.916-0.411 4.213-0.33 6.893v0c0.895-0.282 1.741-0.505 2.536-0.67 0.786-0.168 1.523-0.29 2.211-0.367zM201.613 231.848v0c0.469-0.253 0.958-0.467 1.469-0.642 0.517-0.178 0.995-0.285 1.434-0.319v0l8.084 27.617-4.84 2.612-4.004-13.608c-0.976 0.061-1.864 0.183-2.664 0.367-0.798 0.19-1.63 0.472-2.499 0.848v0c0.221 3.473 0.699 6.866 1.431 10.178 0.733 3.313 1.566 5.835 2.5 7.566v0c0.217 0.403 0.446 0.733 0.686 0.991 0.243 0.264 0.51 0.477 0.799 0.64v0c-1.706 0.921-3.041 1.265-4.004 1.032-0.967-0.239-1.776-0.962-2.428-2.17v0c-0.811-1.502-1.44-3.754-1.888-6.755-0.451-3.007-0.64-6.211-0.566-9.61v0c-1.103 0.688-1.895 1.348-2.376 1.981-0.484 0.641-0.686 1.274-0.605 1.897v0c0.09-0.049 0.246 0.018 0.469 0.201 0.229 0.179 0.403 0.38 0.523 0.602v0c0.208 0.385 0.198 0.797-0.03 1.239-0.222 0.438-0.603 0.802-1.144 1.094v0c-0.625 0.337-1.224 0.435-1.796 0.294-0.567-0.144-1.014-0.52-1.341-1.126v0c-0.629-1.166-0.503-2.499 0.379-3.999 0.879-1.506 2.294-2.786 4.247-3.84v0c0.228-0.123 0.49-0.257 0.785-0.4 0.301-0.147 0.64-0.295 1.017-0.444v0c0.294-4.185 0.991-7.703 2.09-10.554 1.093-2.848 2.517-4.745 4.272-5.692zM233.929 237.859v0c0.469-0.477 0.681-1.102 0.636-1.874-0.04-0.777-0.335-1.665-0.885-2.665v0l-6.931-10.464 3.863-3.929 7.342 11.084c0.122 0.197 0.245 0.37 0.367 0.519 0.117 0.154 0.249 0.302 0.395 0.445v0c0.365 0.359 0.709 0.53 1.032 0.513 0.323-0.027 0.681-0.24 1.074-0.639v0c0.464-0.472 0.674-1.104 0.629-1.896-0.036-0.792-0.321-1.68-0.855-2.665v0l1.127-1.146c1.1 2.221 1.617 4.213 1.549 5.976-0.067 1.753-0.699 3.238-1.896 4.455v0c-0.771 0.784-1.61 1.194-2.517 1.231-0.912 0.032-1.82-0.325-2.725-1.071v0c0.354 1.383 0.42 2.616 0.198 3.699-0.232 1.083-0.758 2.041-1.577 2.874v0c-0.895 0.91-1.881 1.344-2.958 1.3-1.087-0.044-2.148-0.576-3.186-1.596v0c-0.234-0.23-0.482-0.513-0.745-0.848-0.263-0.326-0.532-0.696-0.806-1.109v0l-6.932-10.464 3.856-3.922 7.35 11.077c0.108 0.183 0.215 0.336 0.322 0.461 0.107 0.125 0.224 0.249 0.351 0.373v0c0.365 0.359 0.71 0.564 1.034 0.615 0.324 0.05 0.62-0.061 0.888-0.334zM241.943 206.918l-1.157-1.057 0.651-1.078-3.924-3.706 2.261-5.238 4.503 4.234 1.185-1.965 1.162 1.048-1.185 1.965 8.559 8.019c0.165 0.163 0.322 0.306 0.471 0.428 0.153 0.116 0.317 0.227 0.493 0.333v0c0.439 0.264 0.813 0.351 1.123 0.259 0.308-0.101 0.607-0.391 0.896-0.871v0c0.367-0.608 0.45-1.347 0.25-2.217-0.21-0.868-0.66-1.689-1.349-2.464v0l0.83-1.377c1.559 1.897 2.499 3.743 2.819 5.539 0.311 1.798 0.006 3.46-0.914 4.986v0c-0.659 1.093-1.518 1.744-2.576 1.951-1.067 0.21-2.223-0.061-3.468-0.812v0c-0.281-0.169-0.588-0.387-0.923-0.652-0.332-0.256-0.679-0.553-1.041-0.891v0l-8.015-7.513zM263.617 191.146v0c-1.385-0.443-2.784-1.137-4.195-2.082-1.411-0.945-2.598-1.998-3.56-3.159v0c-1.151-1.357-1.891-2.787-2.221-4.29-0.338-1.499-0.259-3.025 0.238-4.579v0c0.497-1.554 1.353-2.564 2.569-3.028 1.218-0.471 2.8-0.396 4.745 0.225v0c0.041-0.037 0.077-0.083 0.108-0.137 0.034-0.061 0.066-0.14 0.097-0.238v0c0.239-0.748 0.318-1.712 0.236-2.892-0.077-1.172-0.287-2.31-0.629-3.415v0l1.079-0.011c0.512 0.909 0.854 2.015 1.026 3.317 0.178 1.304 0.158 2.67-0.062 4.098v0c3.187 1.333 5.531 3.125 7.034 5.376 1.505 2.244 1.889 4.521 1.151 6.829v0c-0.605 1.893-1.55 3.182-2.837 3.868-1.293 0.683-2.887 0.723-4.779 0.118zM256.187 177.451v0c-0.374 1.171 0.455 2.647 2.488 4.429 2.024 1.786 4.093 3.017 6.206 3.692v0c1.138 0.364 1.953 0.484 2.444 0.361 0.497-0.121 0.862-0.545 1.095-1.273v0c0.289-0.904-0.165-1.995-1.363-3.274-1.197-1.278-2.82-2.402-4.868-3.372v0c-0.18 0.315-0.421 0.511-0.725 0.585-0.304 0.075-0.673 0.043-1.109-0.096v0c-0.462-0.148-0.834-0.374-1.116-0.679-0.278-0.297-0.443-0.654-0.496-1.073v0c-0.789-0.202-1.375-0.249-1.76-0.143-0.385 0.106-0.65 0.387-0.796 0.843zM0 138.768c0-6.05 4.904-10.954 10.954-10.954 6.05 0 10.954 4.904 10.955 10.954 0 6.05-4.904 10.954-10.955 10.955-6.05 0-10.954-4.904-10.954-10.955zM258.091 138.768c0-6.05 4.904-10.954 10.955-10.954 6.05 0 10.954 4.904 10.954 10.954 0 6.05-4.904 10.954-10.954 10.955-6.05 0-10.954-4.904-10.955-10.955z" fill="#ffbe79" data-fill-palette-color="quaternary"/>                                 </svg>                               </g>                             </svg>                           </g>                         </svg>                       </g>                       <g/>                     </svg>                   </g>                 </svg>               </g>             </svg>           </g>         </svg>         <rect width="512" height="320" fill="none" stroke="none" visibility="hidden"/>       </g>     </svg>   </g> </svg>